<?xml version="1.0" encoding="utf-8"?>
<?xml-stylesheet type="text/xsl" href="rss1.xsl"?>
<rss version="2.0" xmlns:atom="http://www.w3.org/2005/Atom" xmlns:content="http://purl.org/rss/1.0/modules/content/" xmlns:dc="http://purl.org/dc/elements/1.1/" xmlns:media="http://search.yahoo.com/mrss/">
<channel>
 <title>Getty</title>
 <link>http://www.gettyimg.com/</link>
 <atom:link href="http://www.gettyimg.com/" rel="self" type="application/rss+xml" />

 
                <item>
                <title><![CDATA[【Requests】[REQ AUD] - J Dilla - J Dilla's Delights, Vol. 1]]></title>
                <link><![CDATA[https://sharemania.us/threads/j-dilla-j-dillas-delights-vol-1.219609/]]></link>
                <description><![CDATA[<article>
<blockquote class="messageText SelectQuoteContainer ugc baseHtml">
Highest quality, please ❤️
<div class="messageTextEndMarker">&nbsp;</div>
</blockquote>
</article>]]></description>
                <author><![CDATA[Melanie_98]]></author>
                </item>

                
                <item>
                <title><![CDATA[【Requests】[REQ VID] - Coachella 2023 Weekend 1 Videos]]></title>
                <link><![CDATA[https://sharemania.us/threads/coachella-2023-weekend-1-videos.219610/]]></link>
                <description><![CDATA[<article>
<blockquote class="messageText SelectQuoteContainer ugc baseHtml">
I'm desparately looking for these videos:<br>
<br>
<br>
Björk<br>
<br>
Domi &amp; JD Beck<br>
<br>
Malaa<br>
<br>
Sasha Alex Sloan<br>
<br>
Whyte Fang<br>
<br>
<br>
I dearly hope to share it if you have the one.
<div class="messageTextEndMarker">&nbsp;</div>
</blockquote>
</article>]]></description>
                <author><![CDATA[poppoint]]></author>
                </item>

                
                <item>
                <title><![CDATA[【PRORES HD】Carrie Underwood - Heartbeat (Master ProRes LPCM 1080p)]]></title>
                <link><![CDATA[https://sharemania.us/threads/carrie-underwood-heartbeat-master-prores-lpcm-1080p.219608/]]></link>
                <description><![CDATA[<article>
<blockquote class="messageText SelectQuoteContainer ugc baseHtml">
<img src="https://images2.imgbox.com/c2/a9/x25Eq4Ot_o.jpg" class="bbCodeImage LbImage" alt="[​IMG]" data-url="https://images2.imgbox.com/c2/a9/x25Eq4Ot_o.jpg" style=""><br>
<img src="https://images2.imgbox.com/33/8d/CAEHrmg3_o.jpg" class="bbCodeImage LbImage" alt="[​IMG]" data-url="https://images2.imgbox.com/33/8d/CAEHrmg3_o.jpg" style=""><br>
<img src="https://images2.imgbox.com/98/01/CBd8YRqu_o.jpg" class="bbCodeImage LbImage" alt="[​IMG]" data-url="https://images2.imgbox.com/98/01/CBd8YRqu_o.jpg" style=""><br>
<div class="ToggleTriggerAnchor bbCodeSpoilerContainer">
<button type="button" class="button bbCodeSpoilerButton ToggleTrigger Tooltip JsOnly" data-target="> .SpoilerTarget"><span>Spoiler: <span class="SpoilerTitle">Details</span></span></button>
<div class="SpoilerTarget bbCodeSpoilerText">
<div class="bbCodeBlock bbCodeCode">
<div class="type">Code:</div>
<pre>Format                      : MPEG-4
Format profile              : QuickTime
Codec ID                    : qt   0000.00 (qt  )
File size                   : 4.92 GiB
Duration                    : 4 min 19 s
Overall bit rate mode       : Variable
Overall bit rate            : 163 Mb/s
Encoded date                : UTC 2016-05-28 07:36:05
Tagged date                 : UTC 2016-05-28 07:41:38
Writing library             : Apple QuickTime

Video
ID                          : 1
Format                      : ProRes
Format version              : Version 0
Format profile              : 422 HQ
Codec ID                    : apch
Duration                    : 4 min 19 s
Bit rate mode               : Variable
Bit rate                    : 161 Mb/s
Width                       : 1 920 pixels
Height                      : 1 080 pixels
Display aspect ratio        : 16:9
Frame rate mode             : Constant
Frame rate                  : 23.976 (24000/1001) FPS
Color space                 : YUV
Chroma subsampling          : 4:2:2
Scan type                   : Progressive
Bits/(Pixel*Frame)          : 3.238
Stream size                 : 4.87 GiB (99%)
Title                       : Core Media Video
Writing library             : abm0
Encoded date                : UTC 2016-05-28 07:36:05
Tagged date                 : UTC 2016-05-28 07:41:38
Color primaries             : BT.709
Transfer characteristics    : BT.709
Matrix coefficients         : BT.709

Audio
ID                          : 2
Format                      : PCM
Format settings             : Little / Signed
Codec ID                    : lpcm
Duration                    : 4 min 19 s
Bit rate mode               : Constant
Bit rate                    : 1 536 kb/s
Channel(s)                  : 2 channels
Channel layout              : L R
Sampling rate               : 48.0 kHz
Bit depth                   : 16 bits
Stream size                 : 47.6 MiB (1%)
Title                       : Core Media Audio
Encoded date                : UTC 2016-05-28 07:36:05
Tagged date                 : UTC 2016-05-28 07:41:38

Other
ID                          : 3
Type                        : Time code
Format                      : QuickTime TC
Duration                    : 4 min 19 s
Frame rate                  : 23.976 (24000/1001) FPS
Time code of first frame    : 01:00:00:00
Time code of last frame     : 01:04:19:22
Time code, striped          : Yes
Title                       : Core Media Time Code
Encoded date                : UTC 2016-05-28 07:36:05
Tagged date                 : UTC 2016-05-28 07:41:38

</pre>
</div></div>
</div><br>
<div class="bbCodeBlock bbCodeVfcHH HiddenContent">
<div class="attribution type">Hidden Content:</div>
<blockquote>You must reply before you can see the hidden data contained here.</blockquote>
</div>
<div class="messageTextEndMarker">&nbsp;</div>
</blockquote>
</article>]]></description>
                <author><![CDATA[thankstome]]></author>
                </item>

                </channel></rss>